<svg xmlns="http://www.w3.org/2000/svg" xmlns:xlink="http://www.w3.org/1999/xlink" width="150" zoomAndPan="magnify" viewBox="0 0 112.5 68.999997" height="92" preserveAspectRatio="xMidYMid meet" version="1.0"><defs><clipPath id="id1"><path d="M 0.265625 0.152344 L 112 0.152344 L 112 68.847656 L 0.265625 68.847656 Z M 0.265625 0.152344 " clip-rule="nonzero"/></clipPath></defs><g clip-path="url(#id1)"><path fill="#000000" d="M 91.277344 27.671875 C 89.15625 27.671875 87.121094 27.984375 85.179688 28.585938 L 74.769531 4.441406 L 77.875 4.441406 C 79.101562 4.441406 80.109375 3.441406 80.109375 2.214844 C 80.109375 0.988281 79.101562 -0.0117188 77.875 -0.0117188 L 65.367188 -0.0117188 C 64.136719 -0.0117188 63.132812 0.988281 63.132812 2.214844 C 63.132812 3.441406 64.136719 4.441406 65.367188 4.441406 L 69.921875 4.441406 L 77.136719 21.144531 L 46.023438 21.144531 L 43.855469 16.3125 L 47.140625 16.3125 C 48.367188 16.3125 49.375 15.3125 49.375 14.085938 C 49.375 12.859375 48.367188 11.859375 47.140625 11.859375 L 34.609375 11.859375 C 33.382812 11.859375 32.375 12.859375 32.375 14.085938 C 32.375 15.3125 33.382812 16.3125 34.609375 16.3125 L 38.964844 16.3125 L 42.003906 23.105469 L 33.582031 31.902344 C 30.097656 29.230469 25.71875 27.648438 21.007812 27.648438 C 9.59375 27.671875 0.300781 36.9375 0.300781 48.320312 C 0.300781 59.699219 9.59375 68.964844 21.007812 68.964844 C 32.085938 68.964844 41.152344 60.257812 41.691406 49.367188 L 53.4375 48.699219 L 56.433594 55.378906 L 55.316406 55.378906 C 54.085938 55.378906 53.082031 56.382812 53.082031 57.605469 C 53.082031 58.832031 54.085938 59.832031 55.316406 59.832031 L 64.046875 59.832031 C 65.277344 59.832031 66.28125 58.832031 66.28125 57.605469 C 66.28125 56.382812 65.277344 55.378906 64.046875 55.378906 L 61.324219 55.378906 L 57.703125 47.292969 L 79.371094 26.378906 L 81.070312 30.34375 C 74.792969 33.910156 70.546875 40.636719 70.546875 48.320312 C 70.546875 59.699219 79.839844 68.964844 91.253906 68.964844 C 102.667969 68.964844 111.980469 59.722656 111.980469 48.320312 C 111.980469 36.914062 102.691406 27.671875 91.277344 27.671875 Z M 33.714844 38.25 C 35.300781 40.234375 36.441406 42.59375 36.933594 45.179688 L 26.523438 45.78125 Z M 21.007812 64.53125 C 12.050781 64.53125 4.769531 57.25 4.769531 48.320312 C 4.769531 39.386719 12.050781 32.125 21.007812 32.125 C 24.535156 32.125 27.820312 33.261719 30.476562 35.179688 L 19.375 46.78125 C 18.75 47.449219 18.570312 48.429688 18.972656 49.253906 C 19.332031 50.054688 20.136719 50.546875 21.007812 50.546875 L 21.140625 50.546875 L 37.199219 49.632812 C 36.53125 57.960938 29.539062 64.53125 21.007812 64.53125 Z M 41.445312 44.933594 C 40.820312 41.191406 39.1875 37.785156 36.820312 35 L 43.96875 27.515625 L 51.496094 44.332031 Z M 55.761719 42.972656 L 48.011719 25.601562 L 73.742188 25.601562 Z M 91.277344 64.53125 C 82.320312 64.53125 75.039062 57.273438 75.039062 48.339844 C 75.039062 42.484375 78.1875 37.339844 82.878906 34.488281 L 89.242188 49.230469 C 89.601562 50.078125 90.425781 50.566406 91.296875 50.566406 C 91.589844 50.566406 91.902344 50.5 92.167969 50.390625 C 93.308594 49.898438 93.824219 48.585938 93.332031 47.472656 L 86.964844 32.707031 C 88.328125 32.328125 89.78125 32.125 91.277344 32.125 C 100.234375 32.125 107.515625 39.386719 107.515625 48.320312 C 107.515625 57.25 100.234375 64.53125 91.277344 64.53125 Z M 91.277344 64.53125 " fill-opacity="1" fill-rule="nonzero"/></g></svg>