<svg xmlns="http://www.w3.org/2000/svg" xmlns:xlink="http://www.w3.org/1999/xlink" width="150" zoomAndPan="magnify" viewBox="0 0 112.5 112.499997" height="150" preserveAspectRatio="xMidYMid meet" version="1.0"><defs><clipPath id="id1"><path d="M 0.257812 42.492188 L 88.5 42.492188 L 88.5 112.003906 L 0.257812 112.003906 Z M 0.257812 42.492188 " clip-rule="nonzero"/></clipPath></defs><path fill="rgb(94.119263%, 94.119263%, 98.039246%)" d="M 33.433594 107.25 C 37.269531 107.25 41.136719 107.050781 44.925781 106.652344 L 45.46875 106.597656 L 45.488281 107.140625 C 45.535156 108.398438 45.792969 109.605469 46.25 110.734375 L 46.523438 111.410156 L 45.796875 111.4375 C 43.863281 111.503906 41.914062 111.539062 39.996094 111.539062 C 34.953125 111.539062 29.925781 111.296875 25.054688 110.816406 C 19.320312 110.25 13.636719 109.347656 8.164062 108.125 C 7.960938 108.078125 7.753906 108.039062 7.554688 107.996094 L 7.351562 107.953125 C 5.507812 107.566406 3.914062 107.230469 2.675781 105.632812 C 2.144531 104.949219 1.800781 104.21875 1.65625 103.457031 L 1.496094 102.640625 L 2.296875 102.871094 C 12.359375 105.777344 22.832031 107.25 33.433594 107.25 Z M 33.433594 107.25 " fill-opacity="1" fill-rule="nonzero"/><path fill="rgb(94.119263%, 94.119263%, 98.039246%)" d="M 45.617188 104.949219 L 45.226562 104.976562 C 42.039062 105.199219 38.808594 105.3125 35.621094 105.3125 C 24.515625 105.3125 13.40625 103.960938 2.601562 101.296875 L 1.804688 101.101562 L 2.332031 100.476562 C 2.386719 100.410156 2.441406 100.347656 2.5 100.285156 C 3.285156 99.503906 4.417969 99.125 5.964844 99.125 C 6.871094 99.125 7.832031 99.257812 8.648438 99.386719 C 16.769531 100.664062 25.117188 101.308594 33.457031 101.308594 C 37.714844 101.308594 42.027344 101.140625 46.273438 100.804688 L 47.207031 100.730469 L 46.765625 101.554688 C 46.261719 102.492188 45.902344 103.507812 45.691406 104.566406 Z M 45.617188 104.949219 " fill-opacity="1" fill-rule="nonzero"/><path fill="rgb(56.858826%, 59.999084%, 65.879822%)" d="M 35.308594 66.410156 C 37.175781 67.339844 39.148438 68.066406 41.175781 68.574219 L 41.917969 68.761719 L 37.792969 74.296875 C 37.558594 74.613281 37.265625 75.007812 37.105469 75.433594 L 36.628906 76.699219 L 36.148438 75.433594 C 35.527344 73.792969 35.078125 72.085938 34.640625 70.421875 C 34.398438 69.5 34.21875 68.734375 34.042969 67.992188 L 34.023438 67.910156 C 33.917969 67.453125 33.808594 66.988281 33.683594 66.484375 L 33.367188 65.191406 L 34.46875 65.9375 C 34.746094 66.125 35.046875 66.28125 35.308594 66.410156 Z M 35.308594 66.410156 " fill-opacity="1" fill-rule="nonzero"/><path fill="rgb(56.858826%, 59.999084%, 65.879822%)" d="M 40.339844 61.578125 C 40.421875 62.601562 40.5625 63.625 40.757812 64.621094 L 40.9375 65.527344 L 36.074219 63.671875 C 35.859375 63.589844 35.625 63.503906 35.390625 63.4375 L 34.195312 63.109375 L 35.273438 62.5 C 36.648438 61.722656 38.207031 61.246094 39.785156 61.109375 L 40.296875 61.066406 Z M 40.339844 61.578125 " fill-opacity="1" fill-rule="nonzero"/><path fill="rgb(56.858826%, 59.999084%, 65.879822%)" d="M 38.03125 77.199219 L 38.097656 77.207031 L 38.160156 77.230469 C 40.191406 78.019531 42.167969 78.625 44.035156 79.023438 L 45.125 79.257812 L 44.234375 79.929688 C 43.671875 80.355469 43.207031 80.90625 43.082031 81.0625 C 42.773438 81.445312 42.632812 81.980469 42.730469 82.402344 L 42.984375 83.480469 L 42 82.972656 C 40.203125 82.046875 38.632812 80.386719 37.339844 78.042969 L 37.261719 77.90625 L 36.6875 76.867188 L 37.835938 77.160156 C 37.902344 77.179688 37.96875 77.191406 38.03125 77.199219 Z M 38.03125 77.199219 " fill-opacity="1" fill-rule="nonzero"/><path fill="rgb(56.858826%, 59.999084%, 65.879822%)" d="M 40.894531 75.347656 C 41.644531 74.429688 42.242188 73.355469 42.621094 72.246094 L 42.988281 71.175781 L 43.550781 72.160156 C 44.367188 73.601562 45.335938 74.96875 46.421875 76.226562 L 47.378906 77.332031 L 40.351562 76.011719 Z M 40.894531 75.347656 " fill-opacity="1" fill-rule="nonzero"/><path fill="rgb(100%, 100%, 100%)" d="M 5.910156 88.46875 C 6.152344 87.574219 6.40625 86.648438 6.632812 85.730469 L 6.804688 85.011719 L 7.417969 85.429688 C 11.925781 88.507812 14.429688 93.996094 13.800781 99.402344 L 13.742188 99.917969 L 13.226562 99.851562 C 11.652344 99.648438 10.121094 99.433594 8.675781 99.207031 C 7.847656 99.074219 6.875 98.941406 5.945312 98.941406 C 5.601562 98.941406 5.273438 98.960938 4.972656 98.996094 L 4.453125 99.058594 L 4.402344 98.539062 C 4.070312 95.164062 4.953125 91.953125 5.886719 88.558594 Z M 5.910156 88.46875 " fill-opacity="1" fill-rule="nonzero"/><path fill="rgb(100%, 100%, 100%)" d="M 35.160156 66.710938 C 34.5625 66.414062 33.941406 66.078125 33.535156 65.507812 C 33.144531 64.957031 33.007812 64.058594 33.519531 63.484375 C 33.796875 63.175781 34.238281 63 34.730469 63 C 34.777344 63 34.824219 63.003906 34.867188 63.003906 C 35.339844 63.035156 35.796875 63.207031 36.195312 63.363281 L 40.867188 65.140625 L 40.929688 65.40625 C 41.148438 66.355469 41.429688 67.3125 41.761719 68.246094 L 41.953125 68.78125 L 42.128906 69.222656 C 42.382812 69.847656 42.664062 70.476562 42.972656 71.085938 C 42.996094 71.136719 43.191406 71.503906 43.191406 71.503906 L 43.140625 71.695312 C 42.738281 73.191406 41.976562 74.613281 40.960938 75.789062 L 47.054688 76.933594 L 47.167969 77.054688 C 47.84375 77.773438 48.5625 78.457031 49.300781 79.085938 L 50 79.683594 L 50.421875 79.699219 L 50.21875 79.871094 L 50.417969 80.039062 L 50.035156 80.027344 L 49.414062 80.554688 C 48.238281 81.558594 46.941406 82.410156 45.566406 83.09375 C 45.15625 83.296875 44.675781 83.519531 44.160156 83.566406 C 44.09375 83.574219 44.023438 83.578125 43.957031 83.578125 C 43.449219 83.578125 42.996094 83.394531 42.707031 83.070312 C 42.160156 82.449219 42.335938 81.457031 42.820312 80.855469 C 43.015625 80.613281 43.644531 79.875 44.371094 79.433594 C 42.675781 79.09375 40.929688 78.597656 39.101562 77.9375 L 37.972656 77.53125 L 37.976562 77.527344 C 37.527344 77.472656 37.148438 77.265625 36.917969 76.9375 C 36.628906 76.535156 36.574219 75.957031 36.761719 75.390625 C 36.929688 74.898438 37.246094 74.472656 37.527344 74.097656 L 41.351562 68.964844 L 41.15625 68.914062 C 39.082031 68.398438 37.0625 67.65625 35.160156 66.710938 Z M 35.160156 66.710938 " fill-opacity="1" fill-rule="nonzero"/><path fill="rgb(100%, 100%, 100%)" d="M 49.867188 100.296875 L 49.808594 99.800781 C 49.046875 93.660156 52.449219 87.074219 57.902344 84.140625 L 58.09375 84.039062 L 58.296875 84.101562 C 58.71875 84.234375 59.09375 84.34375 59.449219 84.4375 C 61.746094 85.046875 64.136719 85.335938 66.449219 85.617188 C 68.679688 85.886719 70.988281 86.164062 73.214844 86.734375 C 75.308594 87.265625 82.285156 89.390625 84.21875 94.304688 L 84.617188 95.3125 L 83.585938 94.976562 C 83.066406 94.808594 82.539062 94.695312 82.015625 94.640625 C 81.699219 94.609375 81.367188 94.59375 81.03125 94.59375 C 79.152344 94.59375 77.28125 95.097656 75.46875 95.589844 L 75.183594 95.664062 C 67.125 97.828125 58.777344 99.371094 50.367188 100.246094 Z M 49.867188 100.296875 " fill-opacity="1" fill-rule="nonzero"/><path fill="rgb(92.158508%, 41.958618%, 39.99939%)" d="M 38.972656 48.921875 C 39.339844 48.460938 39.921875 48.171875 40.558594 48.132812 C 40.617188 48.128906 40.675781 48.125 40.730469 48.125 C 41.292969 48.125 41.8125 48.316406 42.199219 48.664062 L 42.460938 48.902344 L 42.332031 49.230469 L 42.257812 49.40625 C 42.191406 49.574219 42.121094 49.746094 42.054688 49.914062 C 41.304688 51.789062 40.78125 53.773438 40.5 55.8125 L 40.445312 56.203125 L 40.054688 56.25 C 39.847656 56.277344 39.628906 56.296875 39.402344 56.296875 C 39.257812 56.296875 39.121094 56.289062 38.996094 56.269531 C 38.507812 56.191406 38.113281 55.960938 37.894531 55.617188 C 37.589844 55.148438 37.652344 54.582031 37.75 53.992188 L 38.261719 50.941406 C 38.367188 50.300781 38.5 49.511719 38.972656 48.921875 Z M 38.972656 48.921875 " fill-opacity="1" fill-rule="nonzero"/><path fill="rgb(92.158508%, 41.958618%, 39.99939%)" d="M 1.878906 101.203125 L 2.097656 100.714844 L 2.558594 100.945312 C 13.378906 103.621094 24.5 104.980469 35.617188 104.980469 C 38.734375 104.980469 41.902344 104.871094 45.039062 104.65625 L 45.664062 104.613281 L 45.582031 105.230469 C 45.527344 105.644531 45.492188 106.066406 45.484375 106.484375 L 45.472656 106.933594 L 45.027344 106.980469 C 41.214844 107.378906 37.316406 107.582031 33.433594 107.582031 L 33.429688 107.582031 C 22.699219 107.582031 12.105469 106.082031 1.945312 103.117188 L 1.574219 103.007812 L 1.578125 102.621094 C 1.582031 102.117188 1.683594 101.640625 1.878906 101.203125 Z M 1.878906 101.203125 " fill-opacity="1" fill-rule="nonzero"/><path fill="rgb(92.158508%, 41.958618%, 39.99939%)" d="M 14.429688 100 L 13.921875 99.9375 L 13.980469 99.433594 C 14.632812 93.863281 11.902344 88.089844 7.203125 85.066406 L 6.828125 84.898438 L 6.914062 84.496094 C 7.011719 84.042969 7.089844 83.625 7.15625 83.222656 L 7.214844 82.867188 L 7.261719 82.539062 C 7.832031 78.515625 7.550781 74.070312 6.371094 68.554688 C 5.878906 66.242188 5.269531 63.914062 4.679688 61.664062 L 4.636719 61.5 C 4.023438 59.148438 3.386719 56.714844 2.882812 54.300781 C 2.828125 54.035156 2.78125 53.777344 2.738281 53.507812 L 2.644531 52.933594 L 35.730469 51.851562 L 35.621094 52.472656 C 35.5625 52.785156 35.511719 53.101562 35.460938 53.4375 L 35.4375 53.605469 L 35.371094 54.113281 C 35.234375 55.171875 35.144531 56.242188 35.105469 57.296875 L 35.09375 57.5625 L 35.085938 58.035156 C 35.082031 58.410156 35.082031 58.78125 35.085938 59.148438 L 35.09375 59.46875 L 34.808594 59.613281 C 33.351562 60.351562 32.265625 61.464844 31.746094 62.746094 C 31.085938 64.382812 31.328125 66.242188 31.6875 68.007812 C 32.3125 71.105469 33.226562 74.164062 34.398438 77.101562 C 35.34375 79.46875 36.609375 82.117188 38.859375 83.8125 C 40.363281 84.949219 42.257812 85.578125 44.195312 85.578125 C 44.714844 85.578125 45.226562 85.53125 45.714844 85.441406 C 48.082031 85.011719 50.257812 83.542969 51.539062 81.523438 C 51.546875 81.511719 51.550781 81.5 51.558594 81.488281 L 51.808594 80.988281 L 52.285156 81.289062 C 52.5625 81.464844 52.808594 81.613281 53.03125 81.742188 L 53.296875 81.898438 L 53.554688 82.042969 C 54.027344 82.308594 54.492188 82.550781 54.945312 82.769531 L 55.328125 82.957031 L 55.332031 82.953125 L 55.625 83.085938 C 56.007812 83.257812 56.417969 83.429688 56.839844 83.589844 L 57.78125 83.957031 L 56.929688 84.5 C 54.589844 85.984375 52.65625 88.121094 51.332031 90.683594 C 49.863281 93.535156 49.257812 96.773438 49.625 99.796875 L 49.6875 100.316406 L 49.164062 100.367188 C 48.667969 100.414062 48.167969 100.460938 47.667969 100.503906 L 47.136719 100.550781 L 46.980469 100.5625 C 42.5 100.9375 37.945312 101.125 33.453125 101.125 C 27.089844 101.125 20.6875 100.746094 14.429688 100 Z M 14.429688 100 " fill-opacity="1" fill-rule="nonzero"/><path fill="rgb(97.24884%, 84.309387%, 52.938843%)" d="M 3.816406 48.652344 C 4.769531 47.867188 6.054688 47.785156 7.511719 47.761719 L 36.953125 47.316406 L 36.726562 48 C 36.390625 49.015625 36.09375 50.117188 35.851562 51.277344 L 35.765625 51.667969 L 2.628906 52.753906 L 2.601562 52.25 C 2.523438 50.566406 2.917969 49.390625 3.816406 48.652344 Z M 3.816406 48.652344 " fill-opacity="1" fill-rule="nonzero"/><path fill="rgb(97.24884%, 84.309387%, 52.938843%)" d="M 35.382812 59.542969 C 36.925781 58.894531 38.59375 58.738281 39.710938 58.675781 L 40.257812 58.648438 L 40.25 59.191406 C 40.246094 59.742188 40.261719 60.300781 40.292969 60.90625 L 40.316406 61.402344 L 39.824219 61.441406 C 38.042969 61.59375 36.316406 62.1875 34.824219 63.164062 L 34.710938 63.320312 L 34.492188 63.351562 C 34.191406 63.394531 33.9375 63.519531 33.765625 63.710938 C 33.425781 64.089844 33.484375 64.6875 33.691406 65.109375 L 33.753906 65.238281 L 33.742188 65.355469 C 34 66.328125 34.191406 67.164062 34.351562 67.835938 C 34.515625 68.550781 34.707031 69.363281 34.964844 70.339844 C 35.632812 72.890625 36.328125 75.527344 37.628906 77.878906 C 39.136719 80.609375 40.996094 82.367188 43.152344 83.105469 L 43.257812 83.085938 L 43.394531 83.140625 C 43.566406 83.207031 43.757812 83.242188 43.957031 83.242188 C 44.011719 83.242188 44.070312 83.242188 44.125 83.234375 C 44.589844 83.191406 45.035156 82.984375 45.417969 82.796875 C 46.949219 82.039062 48.367188 81.070312 49.632812 79.914062 L 49.949219 79.628906 L 50.289062 79.890625 C 50.609375 80.136719 50.957031 80.390625 51.316406 80.644531 L 51.773438 80.964844 L 51.394531 81.410156 C 50.136719 83.402344 48 84.839844 45.683594 85.261719 C 45.195312 85.351562 44.691406 85.398438 44.183594 85.398438 C 42.296875 85.398438 40.445312 84.785156 38.96875 83.667969 C 36.75 81.996094 35.5 79.375 34.566406 77.035156 C 33.402344 74.117188 32.492188 71.070312 31.863281 67.972656 C 31.511719 66.230469 31.273438 64.402344 31.914062 62.816406 C 32.476562 61.429688 33.738281 60.238281 35.382812 59.542969 Z M 35.382812 59.542969 " fill-opacity="1" fill-rule="nonzero"/><path fill="rgb(97.24884%, 84.309387%, 52.938843%)" d="M 39.046875 55.941406 C 39.15625 55.957031 39.273438 55.964844 39.40625 55.964844 C 39.5625 55.964844 39.71875 55.949219 39.851562 55.9375 L 40.484375 55.871094 L 40.414062 56.503906 C 40.359375 56.980469 40.316406 57.488281 40.289062 58.007812 L 40.265625 58.46875 L 39.804688 58.492188 C 38.828125 58.539062 37.367188 58.660156 35.9375 59.140625 L 35.265625 59.367188 L 35.265625 58.65625 C 35.25 54.558594 36.042969 50.09375 37.390625 46.707031 C 37.792969 45.6875 38.195312 44.878906 38.84375 44.25 C 39.40625 43.699219 40.125 43.386719 40.808594 43.386719 C 41.019531 43.386719 41.222656 43.414062 41.414062 43.476562 C 42.589844 43.84375 43.160156 45.214844 43.113281 46.382812 C 43.082031 47.191406 42.835938 47.9375 42.597656 48.558594 L 42.363281 49.179688 L 41.824219 48.792969 C 41.519531 48.578125 41.128906 48.460938 40.726562 48.460938 C 40.679688 48.460938 40.632812 48.460938 40.582031 48.464844 C 40.035156 48.5 39.542969 48.742188 39.234375 49.128906 C 38.816406 49.648438 38.699219 50.359375 38.59375 50.996094 L 38.078125 54.050781 C 38.007812 54.464844 37.914062 55.035156 38.171875 55.433594 C 38.339844 55.695312 38.660156 55.878906 39.046875 55.941406 Z M 39.046875 55.941406 " fill-opacity="1" fill-rule="nonzero"/><path fill="rgb(74.119568%, 78.039551%, 84.309387%)" d="M 47.492188 100.703125 L 47.738281 100.679688 C 48.757812 100.589844 49.753906 100.496094 50.703125 100.394531 L 51.253906 100.335938 L 51.257812 100.332031 L 51.523438 100.300781 C 52.1875 100.230469 52.914062 100.144531 53.738281 100.039062 L 54.421875 99.957031 L 54.484375 99.949219 C 55.441406 99.820312 56.4375 99.683594 57.4375 99.53125 L 58.191406 99.417969 C 58.816406 99.320312 59.472656 99.21875 60.140625 99.105469 L 60.800781 98.996094 L 60.84375 98.992188 C 61.578125 98.863281 62.335938 98.730469 63.097656 98.589844 L 63.300781 98.550781 L 63.773438 98.460938 C 64.578125 98.304688 65.410156 98.140625 66.25 97.96875 L 66.777344 97.859375 L 66.921875 97.828125 C 67.6875 97.667969 68.507812 97.488281 69.433594 97.277344 L 69.5625 97.246094 L 70.101562 97.121094 C 71.113281 96.886719 72.007812 96.667969 72.835938 96.460938 L 73.296875 96.34375 L 73.503906 96.292969 C 74.078125 96.144531 74.65625 95.996094 75.226562 95.839844 L 75.589844 95.742188 L 75.695312 95.71875 L 75.695312 95.714844 L 76.253906 95.566406 C 76.957031 95.378906 77.882812 95.144531 78.816406 94.984375 L 78.851562 94.976562 L 78.84375 94.964844 L 79.554688 94.875 C 80.082031 94.808594 80.570312 94.777344 81.046875 94.777344 C 81.371094 94.777344 81.691406 94.792969 81.996094 94.824219 C 82.046875 94.828125 82.09375 94.835938 82.144531 94.839844 L 82.09375 94.742188 L 83.21875 95.054688 C 85.238281 95.613281 86.742188 96.914062 87.238281 98.539062 C 87.917969 100.757812 86.621094 102.964844 85.304688 104.175781 L 84.414062 105 L 84.417969 104.871094 C 83.761719 105.316406 83.019531 105.695312 82.144531 106.03125 L 81.445312 106.300781 L 81.445312 106.28125 L 81.433594 106.285156 C 80.691406 106.53125 79.875 106.753906 78.789062 107.007812 L 78.101562 107.164062 C 77.328125 107.339844 76.535156 107.511719 75.75 107.679688 L 75.5 107.734375 L 75.472656 107.738281 L 75.167969 107.804688 L 75.167969 107.800781 L 75.066406 107.824219 C 74.058594 108.035156 73.117188 108.222656 72.191406 108.402344 L 71.945312 108.449219 L 71.945312 108.453125 L 71.507812 108.535156 C 70.519531 108.71875 69.613281 108.882812 68.742188 109.035156 L 68.234375 109.121094 L 68.230469 109.117188 L 68.0625 109.148438 C 67.132812 109.300781 66.199219 109.453125 65.28125 109.59375 L 65.097656 109.621094 L 64.597656 109.695312 C 63.578125 109.847656 62.65625 109.976562 61.789062 110.09375 L 61.34375 110.152344 L 61.339844 110.148438 L 61.097656 110.179688 C 60.488281 110.257812 59.878906 110.335938 59.273438 110.40625 C 58.996094 110.4375 58.722656 110.46875 58.449219 110.496094 L 57.941406 110.550781 L 57.941406 110.554688 L 57.367188 110.617188 C 56.421875 110.714844 55.582031 110.796875 54.796875 110.867188 L 54.40625 110.902344 L 54.402344 110.902344 L 54.085938 110.929688 C 52.796875 111.039062 51.640625 111.128906 50.550781 111.199219 L 50.140625 111.226562 L 50.136719 111.222656 L 49.847656 111.238281 C 48.960938 111.292969 48.027344 111.34375 47.082031 111.386719 L 46.683594 111.402344 L 46.566406 111.015625 C 45.128906 107.820312 45.4375 103.855469 47.355469 100.910156 Z M 47.492188 100.703125 " fill-opacity="1" fill-rule="nonzero"/><g clip-path="url(#id1)"><path fill="rgb(0%, 0%, 0%)" d="M 2.011719 99.796875 C 2.515625 99.296875 3.097656 98.964844 3.726562 98.753906 C 3.34375 95.203125 4.292969 91.730469 5.214844 88.375 C 5.695312 86.628906 6.191406 84.824219 6.484375 83.046875 C 7.164062 78.960938 6.910156 74.402344 5.695312 68.699219 C 5.195312 66.367188 4.582031 64.015625 3.984375 61.738281 C 3.363281 59.359375 2.71875 56.898438 2.203125 54.441406 C 1.96875 53.308594 1.246094 49.871094 3.375 48.121094 C 4.503906 47.191406 5.96875 47.09375 7.5 47.070312 L 36.679688 46.625 C 36.699219 46.570312 36.722656 46.507812 36.746094 46.449219 C 37.125 45.492188 37.585938 44.503906 38.359375 43.75 C 39.285156 42.851562 40.566406 42.484375 41.621094 42.8125 C 43.132812 43.285156 43.863281 44.976562 43.804688 46.410156 C 43.757812 47.578125 43.324219 48.640625 42.902344 49.671875 C 42.832031 49.835938 42.761719 50.003906 42.699219 50.171875 C 40.070312 56.746094 40.40625 64.449219 43.59375 70.777344 C 46.78125 77.101562 52.773438 81.960938 59.625 83.769531 C 61.871094 84.363281 64.242188 84.648438 66.53125 84.929688 C 68.792969 85.203125 71.128906 85.484375 73.386719 86.0625 C 76.011719 86.730469 78.527344 87.800781 80.464844 89.070312 C 82.976562 90.71875 84.546875 92.664062 85.132812 94.855469 C 85.152344 94.941406 85.15625 95.023438 85.144531 95.101562 C 86.402344 95.804688 87.457031 96.882812 87.902344 98.335938 C 88.710938 100.988281 87.101562 103.710938 85.261719 105.121094 C 83.339844 106.589844 80.984375 107.214844 78.539062 107.773438 C 72.160156 109.234375 65.707031 110.351562 59.355469 111.09375 C 52.847656 111.855469 46.386719 112.234375 40.019531 112.234375 C 34.9375 112.234375 29.914062 111.992188 24.984375 111.507812 C 19.222656 110.9375 13.511719 110.027344 8.015625 108.804688 C 7.746094 108.742188 7.480469 108.6875 7.21875 108.632812 C 5.320312 108.234375 3.523438 107.859375 2.128906 106.054688 C 0.296875 103.691406 0.683594 101.117188 2.011719 99.796875 Z M 44.972656 106.472656 C 44.984375 106.035156 45.015625 105.597656 45.074219 105.164062 C 41.921875 105.378906 38.769531 105.488281 35.621094 105.488281 C 24.4375 105.488281 13.308594 104.132812 2.414062 101.4375 C 2.390625 101.429688 2.367188 101.421875 2.347656 101.410156 C 2.1875 101.769531 2.09375 102.183594 2.085938 102.628906 C 15.875 106.648438 30.6875 107.976562 44.972656 106.472656 Z M 54.042969 110.421875 C 52.953125 107.277344 52.863281 103.738281 53.800781 100.546875 C 53.0625 100.640625 52.320312 100.726562 51.582031 100.808594 C 49.988281 103.789062 49.589844 107.445312 50.519531 110.691406 C 51.691406 110.613281 52.863281 110.519531 54.042969 110.421875 Z M 57.3125 110.109375 C 56.558594 106.820312 56.628906 103.292969 57.515625 100.039062 C 56.527344 100.183594 55.539062 100.324219 54.550781 100.453125 C 53.546875 103.640625 53.617188 107.214844 54.75 110.359375 C 55.605469 110.28125 56.457031 110.199219 57.3125 110.109375 Z M 50.757812 100.902344 C 49.769531 101.007812 48.777344 101.101562 47.785156 101.1875 C 45.949219 104.007812 45.652344 107.757812 47.042969 110.824219 C 47.050781 110.839844 47.054688 110.855469 47.058594 110.875 C 47.976562 110.832031 48.894531 110.785156 49.816406 110.730469 C 48.933594 107.503906 49.285156 103.910156 50.757812 100.902344 Z M 2.722656 100.800781 C 16.625 104.230469 30.910156 105.460938 45.191406 104.46875 C 45.40625 103.367188 45.78125 102.300781 46.3125 101.3125 C 33.710938 102.308594 20.984375 101.84375 8.570312 99.890625 C 6.503906 99.566406 4.1875 99.332031 2.863281 100.648438 C 2.8125 100.695312 2.769531 100.75 2.722656 100.800781 Z M 6.378906 88.691406 C 5.457031 92.046875 4.589844 95.21875 4.910156 98.492188 C 6.152344 98.339844 7.5 98.503906 8.757812 98.703125 C 10.265625 98.9375 11.777344 99.152344 13.292969 99.34375 C 13.898438 94.152344 11.441406 88.796875 7.128906 85.847656 C 6.894531 86.808594 6.632812 87.757812 6.378906 88.691406 Z M 5.148438 61.433594 C 5.75 63.722656 6.367188 66.089844 6.871094 68.449219 C 7.984375 73.660156 8.53125 79.351562 7.414062 84.601562 C 7.433594 84.609375 7.449219 84.617188 7.46875 84.628906 C 12.355469 87.769531 15.160156 93.726562 14.488281 99.492188 C 14.445312 99.867188 30.734375 100.597656 32.210938 100.609375 C 35.601562 100.636719 38.992188 100.554688 42.378906 100.371094 C 43.890625 100.285156 45.402344 100.179688 46.910156 100.039062 C 47.113281 100.015625 49.09375 99.980469 49.117188 99.855469 C 48.734375 96.734375 49.359375 93.398438 50.878906 90.449219 C 52.242188 87.816406 54.265625 85.585938 56.65625 84.066406 C 56.398438 84.230469 54.8125 83.25 54.570312 83.128906 C 53.699219 82.6875 52.789062 82.28125 52.007812 81.722656 C 50.84375 83.941406 48.207031 85.507812 45.808594 85.945312 C 45.277344 86.039062 44.734375 86.089844 44.195312 86.089844 C 42.179688 86.089844 40.15625 85.433594 38.550781 84.222656 C 36.199219 82.445312 34.894531 79.722656 33.921875 77.292969 C 32.742188 74.328125 31.820312 71.238281 31.1875 68.109375 C 30.8125 66.265625 30.5625 64.316406 31.273438 62.558594 C 31.835938 61.160156 33.027344 59.945312 34.578125 59.15625 C 34.550781 57.953125 34.597656 56.75 34.703125 55.546875 C 34.742188 55.09375 34.699219 54.644531 34.742188 54.199219 C 34.757812 54.023438 34.957031 52.390625 35.117188 52.382812 C 35.117188 52.382812 3.242188 53.425781 3.242188 53.425781 C 3.28125 53.671875 3.328125 53.925781 3.382812 54.195312 C 3.890625 56.621094 4.53125 59.066406 5.148438 61.433594 Z M 37.972656 77.707031 C 37.886719 77.695312 37.796875 77.679688 37.710938 77.65625 C 37.734375 77.703125 37.757812 77.75 37.785156 77.792969 C 39.035156 80.058594 40.53125 81.640625 42.234375 82.519531 C 42.089844 81.902344 42.304688 81.210938 42.683594 80.742188 C 42.851562 80.535156 43.332031 79.96875 43.925781 79.523438 C 42.019531 79.113281 40.042969 78.507812 37.972656 77.707031 Z M 39.828125 61.621094 C 38.316406 61.746094 36.84375 62.199219 35.523438 62.945312 C 35.785156 63.015625 36.03125 63.109375 36.261719 63.195312 L 40.257812 64.722656 C 40.054688 63.699219 39.914062 62.660156 39.828125 61.621094 Z M 40.433594 65.523438 L 36.015625 63.839844 C 35.628906 63.691406 35.230469 63.539062 34.835938 63.515625 C 34.449219 63.488281 34.097656 63.605469 33.902344 63.828125 C 33.578125 64.1875 33.671875 64.816406 33.953125 65.210938 C 34.289062 65.683594 34.847656 65.984375 35.386719 66.253906 C 37.265625 67.183594 39.246094 67.910156 41.28125 68.417969 C 40.941406 67.46875 40.660156 66.503906 40.433594 65.523438 Z M 35.082031 66.871094 C 34.777344 66.71875 34.46875 66.558594 34.183594 66.359375 C 34.304688 66.867188 34.414062 67.335938 34.523438 67.792969 C 34.699219 68.554688 34.882812 69.34375 35.132812 70.292969 C 35.570312 71.945312 36.015625 73.632812 36.625 75.253906 C 36.804688 74.773438 37.113281 74.359375 37.386719 73.992188 L 41.054688 69.070312 C 38.992188 68.550781 36.984375 67.8125 35.082031 66.871094 Z M 44.917969 79.71875 C 44.914062 79.71875 44.910156 79.722656 44.90625 79.726562 C 44.304688 79.996094 43.640625 80.652344 43.21875 81.175781 C 42.875 81.601562 42.726562 82.316406 43.09375 82.730469 C 43.304688 82.972656 43.695312 83.097656 44.109375 83.058594 C 44.542969 83.019531 44.972656 82.820312 45.339844 82.636719 C 46.683594 81.96875 47.941406 81.140625 49.082031 80.167969 C 47.722656 80.125 46.339844 79.976562 44.917969 79.71875 Z M 49.976562 80.292969 C 48.675781 81.476562 47.222656 82.472656 45.644531 83.253906 C 45.222656 83.464844 44.726562 83.691406 44.175781 83.742188 C 44.101562 83.75 44.03125 83.753906 43.957031 83.753906 C 43.691406 83.753906 43.4375 83.707031 43.207031 83.617188 C 43.1875 83.621094 43.171875 83.625 43.148438 83.625 C 43.113281 83.625 43.078125 83.621094 43.039062 83.609375 C 40.734375 82.835938 38.765625 80.992188 37.179688 78.125 C 35.851562 75.722656 35.148438 73.050781 34.46875 70.46875 C 34.214844 69.511719 34.03125 68.71875 33.851562 67.949219 C 33.675781 67.1875 33.492188 66.398438 33.242188 65.449219 C 33.230469 65.414062 33.230469 65.375 33.230469 65.335938 C 32.933594 64.730469 32.894531 63.921875 33.386719 63.367188 C 33.640625 63.085938 34.003906 62.90625 34.421875 62.847656 C 34.445312 62.8125 34.476562 62.777344 34.515625 62.753906 C 36.089844 61.71875 37.90625 61.089844 39.78125 60.933594 C 39.75 60.351562 39.734375 59.769531 39.742188 59.1875 C 38.476562 59.257812 36.957031 59.433594 35.582031 60.015625 C 34.0625 60.65625 32.898438 61.746094 32.390625 63.007812 C 31.796875 64.472656 32.027344 66.210938 32.367188 67.871094 C 32.984375 70.929688 33.886719 73.949219 35.042969 76.847656 C 35.949219 79.121094 37.164062 81.664062 39.277344 83.261719 C 41.046875 84.597656 43.40625 85.160156 45.589844 84.761719 C 47.773438 84.363281 49.785156 83.007812 50.96875 81.132812 C 50.984375 81.105469 51.003906 81.082031 51.023438 81.0625 C 50.667969 80.8125 50.320312 80.558594 49.976562 80.292969 Z M 7.519531 48.273438 C 6.160156 48.292969 4.96875 48.367188 4.136719 49.046875 C 3.382812 49.671875 3.042969 50.722656 3.113281 52.226562 L 35.351562 51.171875 C 35.59375 50.015625 35.894531 48.890625 36.242188 47.835938 Z M 41.265625 43.960938 C 40.621094 43.765625 39.8125 44.019531 39.199219 44.613281 C 38.621094 45.175781 38.246094 45.933594 37.863281 46.894531 C 36.527344 50.253906 35.761719 54.613281 35.777344 58.65625 C 37.160156 58.191406 38.589844 58.039062 39.78125 57.980469 C 39.808594 57.46875 39.847656 56.957031 39.90625 56.445312 C 39.742188 56.460938 39.574219 56.476562 39.40625 56.476562 C 39.261719 56.476562 39.113281 56.464844 38.96875 56.445312 C 38.4375 56.363281 37.992188 56.09375 37.742188 55.714844 C 37.378906 55.144531 37.496094 54.433594 37.574219 53.964844 L 38.089844 50.910156 C 38.199219 50.253906 38.335938 49.4375 38.835938 48.808594 C 39.234375 48.3125 39.859375 48 40.550781 47.953125 C 41.128906 47.914062 41.683594 48.070312 42.121094 48.378906 C 42.375 47.703125 42.574219 47.042969 42.601562 46.359375 C 42.640625 45.410156 42.183594 44.25 41.265625 43.960938 Z M 41.578125 49.722656 C 41.644531 49.554688 41.714844 49.382812 41.785156 49.214844 C 41.808594 49.15625 41.832031 49.101562 41.855469 49.042969 C 41.535156 48.753906 41.078125 48.605469 40.59375 48.640625 C 40.09375 48.675781 39.648438 48.890625 39.371094 49.238281 C 38.984375 49.726562 38.867188 50.414062 38.765625 51.023438 L 38.253906 54.078125 C 38.171875 54.5625 38.117188 55.023438 38.324219 55.339844 C 38.460938 55.558594 38.734375 55.710938 39.074219 55.765625 C 39.367188 55.808594 39.683594 55.78125 39.992188 55.742188 C 40.28125 53.683594 40.808594 51.65625 41.578125 49.722656 Z M 41.65625 69.414062 L 37.9375 74.402344 C 37.667969 74.765625 37.386719 75.140625 37.246094 75.554688 C 37.109375 75.964844 37.140625 76.371094 37.332031 76.640625 C 37.609375 77.023438 38.164062 77.09375 38.566406 76.992188 C 39.097656 76.863281 39.558594 76.476562 39.898438 76.15625 C 41.210938 74.925781 42.179688 73.304688 42.648438 71.566406 C 42.605469 71.480469 42.5625 71.402344 42.519531 71.316406 C 42.203125 70.695312 41.917969 70.058594 41.65625 69.414062 Z M 43.105469 72.414062 C 42.699219 73.589844 42.078125 74.703125 41.289062 75.667969 L 46.035156 76.5625 C 44.929688 75.277344 43.945312 73.886719 43.105469 72.414062 Z M 46.796875 77.40625 L 40.757812 76.269531 C 40.632812 76.402344 40.503906 76.53125 40.371094 76.65625 C 40.082031 76.929688 39.714844 77.242188 39.277344 77.457031 C 42.726562 78.699219 45.914062 79.363281 48.96875 79.476562 C 48.207031 78.824219 47.480469 78.132812 46.796875 77.40625 Z M 73.085938 87.226562 C 70.90625 86.671875 68.609375 86.390625 66.386719 86.121094 C 64.054688 85.839844 61.644531 85.546875 59.316406 84.933594 C 58.925781 84.828125 58.53125 84.714844 58.144531 84.589844 C 52.851562 87.4375 49.574219 93.777344 50.316406 99.738281 C 58.683594 98.863281 66.972656 97.339844 75.050781 95.171875 L 75.339844 95.09375 C 77.511719 94.507812 79.761719 93.902344 82.066406 94.132812 C 82.613281 94.1875 83.183594 94.308594 83.742188 94.488281 C 82.285156 90.785156 77.375 88.320312 73.085938 87.226562 Z M 61.71875 109.585938 C 62.652344 109.460938 63.589844 109.328125 64.523438 109.191406 L 63.191406 99.089844 C 62.4375 99.230469 61.683594 99.363281 60.929688 99.492188 C 60.578125 102.851562 60.847656 106.324219 61.71875 109.585938 Z M 67.976562 108.640625 L 66.355469 98.464844 C 65.527344 98.636719 64.699219 98.800781 63.871094 98.960938 L 65.203125 109.085938 C 66.128906 108.945312 67.050781 108.796875 67.976562 108.640625 Z M 71.410156 108.03125 C 71.230469 104.546875 70.601562 101.097656 69.546875 97.773438 C 68.707031 97.964844 67.867188 98.152344 67.027344 98.328125 C 67.03125 98.339844 67.035156 98.347656 67.035156 98.359375 L 68.65625 108.53125 C 69.574219 108.371094 70.492188 108.203125 71.410156 108.03125 Z M 82.203125 95.363281 C 82.117188 95.351562 82.03125 95.339844 81.945312 95.332031 C 81.175781 95.253906 80.398438 95.285156 79.617188 95.378906 C 81.183594 98.535156 81.988281 102.03125 81.960938 105.554688 C 82.777344 105.242188 83.546875 104.859375 84.242188 104.371094 C 84.453125 101.261719 83.730469 98.085938 82.203125 95.363281 Z M 78.902344 95.488281 C 78.058594 95.632812 77.21875 95.839844 76.386719 96.058594 C 77.730469 99.359375 78.515625 102.949219 78.671875 106.507812 C 79.5625 106.300781 80.4375 106.078125 81.269531 105.800781 C 81.339844 102.226562 80.523438 98.671875 78.902344 95.488281 Z M 75.714844 96.238281 C 75.695312 96.242188 75.671875 96.25 75.652344 96.253906 L 75.363281 96.332031 C 74.785156 96.488281 74.207031 96.636719 73.628906 96.785156 C 74.75 100.152344 75.425781 103.640625 75.644531 107.179688 C 76.425781 107.015625 77.207031 106.839844 77.988281 106.664062 C 77.851562 103.113281 77.066406 99.527344 75.714844 96.238281 Z M 72.960938 96.957031 C 72.050781 97.183594 71.132812 97.40625 70.21875 97.617188 C 71.273438 100.953125 71.90625 104.40625 72.09375 107.898438 C 73.050781 107.714844 74.007812 107.523438 74.964844 107.324219 C 74.753906 103.792969 74.082031 100.308594 72.960938 96.957031 Z M 86.75 98.6875 C 86.242188 97.03125 84.683594 95.988281 83.082031 95.542969 C 84.386719 98.078125 85.042969 100.953125 84.960938 103.800781 C 86.289062 102.578125 87.332031 100.585938 86.75 98.6875 Z M 61.03125 109.671875 C 60.171875 106.417969 59.898438 102.960938 60.226562 99.609375 C 59.570312 99.71875 58.917969 99.824219 58.261719 99.925781 C 57.320312 103.175781 57.226562 106.730469 58.003906 110.03125 C 58.40625 109.988281 58.808594 109.945312 59.214844 109.898438 C 59.816406 109.828125 60.421875 109.75 61.03125 109.671875 Z M 3.078125 105.320312 C 4.207031 106.773438 5.644531 107.074219 7.464844 107.453125 C 7.730469 107.511719 8 107.566406 8.277344 107.628906 C 13.726562 108.84375 19.386719 109.746094 25.101562 110.308594 C 31.847656 110.972656 38.761719 111.175781 45.777344 110.925781 C 45.292969 109.730469 45.027344 108.449219 44.976562 107.164062 C 41.15625 107.5625 37.300781 107.761719 33.433594 107.761719 C 22.867188 107.761719 12.242188 106.277344 2.15625 103.359375 C 2.277344 103.992188 2.570312 104.664062 3.078125 105.320312 Z M 3.078125 105.320312 " fill-opacity="1" fill-rule="nonzero"/></g></svg>