<svg xmlns="http://www.w3.org/2000/svg" xmlns:xlink="http://www.w3.org/1999/xlink" width="150" zoomAndPan="magnify" viewBox="0 0 112.5 68.999997" height="92" preserveAspectRatio="xMidYMid meet" version="1.0"><defs><clipPath id="id1"><path d="M 23.085938 0.152344 L 89.085938 0.152344 L 89.085938 68.847656 L 23.085938 68.847656 Z M 23.085938 0.152344 " clip-rule="nonzero"/></clipPath></defs><g clip-path="url(#id1)"><path fill="#57d895" d="M 86.558594 0.371094 L 83.597656 2.40625 C 68.097656 13.054688 52.226562 35.101562 44.308594 53.023438 C 43.082031 51.304688 42.714844 50.734375 41.53125 48.824219 C 36.6875 42.257812 30.550781 36.621094 27.636719 34.539062 L 23.085938 36.449219 L 23.230469 36.722656 C 26.371094 40.175781 31.886719 47.839844 40.195312 64.734375 C 40.707031 65.460938 41.25 66.179688 41.867188 66.847656 C 43.492188 68.59375 45.160156 68.964844 46.273438 68.964844 C 49.445312 68.964844 51.316406 66.449219 52.605469 63.503906 C 60.925781 32.480469 80.59375 11.121094 89.097656 3.808594 Z M 86.558594 0.371094 " fill-opacity="1" fill-rule="nonzero"/></g></svg>