<svg xmlns="http://www.w3.org/2000/svg" xmlns:xlink="http://www.w3.org/1999/xlink" width="150" zoomAndPan="magnify" viewBox="0 0 112.5 68.999997" height="92" preserveAspectRatio="xMidYMid meet" version="1.0"><defs><clipPath id="id1"><path d="M 0 3.765625 L 112.003906 3.765625 L 112.003906 65.265625 L 0 65.265625 Z M 0 3.765625 " clip-rule="nonzero"/></clipPath></defs><g clip-path="url(#id1)"><path fill="#a6a6a6" d="M 87.535156 16.105469 C 83.363281 16.105469 79.324219 17.140625 75.738281 19.09375 C 71.375 9.933594 61.96875 3.765625 51.429688 3.765625 C 37.050781 3.765625 25.273438 15.066406 24.578125 29.210938 C 17.972656 29.992188 12.3125 34.359375 9.863281 40.453125 C 4.375 41.816406 0.300781 46.765625 0.300781 52.648438 C 0.300781 59.578125 5.960938 65.214844 12.925781 65.214844 L 49.824219 65.214844 L 49.824219 45.445312 L 43.703125 45.445312 C 42.519531 45.445312 42.121094 44.101562 42.804688 43.285156 C 46.496094 38.871094 51.660156 34.453125 55.351562 30.039062 C 55.621094 29.714844 55.941406 29.597656 56.25 29.621094 C 56.554688 29.597656 56.875 29.714844 57.148438 30.039062 C 60.839844 34.453125 66.003906 38.871094 69.691406 43.285156 C 70.375 44.101562 69.976562 45.445312 68.792969 45.445312 L 62.675781 45.445312 L 62.675781 65.214844 L 87.535156 65.214844 C 101.132812 65.214844 112.199219 54.199219 112.199219 40.660156 C 112.199219 27.121094 101.132812 16.105469 87.535156 16.105469 Z M 87.535156 16.105469 " fill-opacity="1" fill-rule="nonzero"/></g></svg>