<svg xmlns="http://www.w3.org/2000/svg" xmlns:xlink="http://www.w3.org/1999/xlink" width="150" zoomAndPan="magnify" viewBox="0 0 112.5 68.999997" height="92" preserveAspectRatio="xMidYMid meet" version="1.0"><defs><clipPath id="id1"><path d="M 0 0.902344 L 112.003906 0.902344 L 112.003906 68.402344 L 0 68.402344 Z M 0 0.902344 " clip-rule="nonzero"/></clipPath></defs><path fill="#daa520" d="M 48.804688 25.285156 L 48.804688 29.03125 L 82.523438 29.03125 L 82.523438 25.285156 C 82.523438 21.140625 79.175781 17.792969 75.03125 17.792969 L 56.296875 17.792969 C 52.152344 17.792969 48.804688 21.140625 48.804688 25.285156 Z M 48.804688 25.285156 " fill-opacity="1" fill-rule="nonzero"/><path fill="#daa520" d="M 1.96875 14.042969 L 9.460938 14.042969 L 16.953125 25.285156 L 79.714844 25.285156 C 92.640625 25.285156 103.132812 35.777344 103.132812 48.703125 C 103.132812 54.394531 98.519531 59.007812 92.828125 59.007812 L 67.539062 59.007812 C 57.84375 59.007812 49.761719 51.605469 48.875 41.960938 L 48.546875 38.398438 L 16.953125 32.777344 L 9.460938 44.019531 L 1.96875 44.019531 L 9.460938 29.03125 Z M 1.96875 14.042969 " fill-opacity="1" fill-rule="nonzero"/><path fill="#daa520" d="M 75.03125 25.285156 L 75.03125 32.777344 C 75.03125 38.984375 80.066406 44.019531 86.273438 44.019531 L 102.664062 44.019531 C 100.488281 33.339844 91.050781 25.285156 79.714844 25.285156 Z M 75.03125 25.285156 " fill-opacity="1" fill-rule="nonzero"/><path fill="#daa520" d="M 52.550781 51.511719 C 55.992188 56.082031 61.449219 59.007812 67.539062 59.007812 L 92.828125 59.007812 C 95.6875 59.007812 98.261719 57.859375 100.113281 55.988281 C 101.328125 54.769531 102.265625 53.222656 102.734375 51.511719 Z M 52.550781 51.511719 " fill-opacity="1" fill-rule="nonzero"/><path fill="#daa520" d="M 61.917969 10.296875 L 69.410156 10.296875 L 69.410156 6.550781 C 69.410156 4.492188 67.726562 2.804688 65.664062 2.804688 C 63.601562 2.804688 61.917969 4.492188 61.917969 6.550781 Z M 61.917969 10.296875 " fill-opacity="1" fill-rule="nonzero"/><path fill="#daa520" d="M 60.042969 44.019531 L 63.789062 44.019531 C 65.851562 44.019531 67.539062 42.332031 67.539062 40.273438 L 67.539062 25.285156 L 56.296875 25.285156 L 56.296875 40.273438 C 56.296875 42.332031 57.984375 44.019531 60.042969 44.019531 Z M 60.042969 44.019531 " fill-opacity="1" fill-rule="nonzero"/><g clip-path="url(#id1)"><path fill="#000000" d="M 95.640625 68.375 L 46.929688 68.375 C 45.898438 68.375 45.054688 67.53125 45.054688 66.5 C 45.054688 65.472656 45.898438 64.628906 46.929688 64.628906 L 67.539062 64.628906 L 67.539062 60.878906 C 62.386719 60.878906 57.445312 58.960938 53.652344 55.496094 C 49.855469 52.027344 47.492188 47.273438 47.023438 42.144531 L 46.835938 39.992188 L 17.84375 34.839844 L 11.03125 45.050781 C 10.679688 45.566406 10.09375 45.894531 9.460938 45.894531 L 1.96875 45.894531 C 1.3125 45.894531 0.726562 45.566406 0.375 45.003906 C 0.0234375 44.441406 0 43.761719 0.304688 43.175781 L 7.375 29.03125 L 0.304688 14.886719 C 0.0234375 14.300781 0.046875 13.625 0.375 13.0625 C 0.726562 12.5 1.3125 12.171875 1.96875 12.171875 L 9.460938 12.171875 C 10.09375 12.171875 10.679688 12.476562 11.03125 13.015625 L 17.960938 23.410156 L 47.117188 23.410156 C 47.984375 19.148438 51.777344 15.917969 56.296875 15.917969 L 63.789062 15.917969 L 63.789062 12.171875 L 26.320312 12.171875 C 25.292969 12.171875 24.449219 11.328125 24.449219 10.296875 C 24.449219 9.265625 25.292969 8.425781 26.320312 8.425781 L 60.042969 8.425781 L 60.042969 6.550781 C 60.042969 3.460938 62.574219 0.929688 65.664062 0.929688 C 68.753906 0.929688 71.285156 3.460938 71.285156 6.550781 L 71.285156 8.425781 L 105.007812 8.425781 C 106.035156 8.425781 106.878906 9.265625 106.878906 10.296875 C 106.878906 11.328125 106.035156 12.171875 105.007812 12.171875 L 67.539062 12.171875 L 67.539062 15.917969 L 75.03125 15.917969 C 79.691406 15.917969 83.578125 19.359375 84.28125 23.832031 C 96.0625 25.988281 105.007812 36.316406 105.007812 48.703125 C 105.007812 55.097656 100.042969 60.367188 93.765625 60.832031 L 93.765625 64.628906 L 95.640625 64.628906 C 102.875 64.628906 108.753906 58.75 108.753906 51.511719 C 108.753906 50.484375 109.597656 49.640625 110.625 49.640625 C 111.65625 49.640625 112.5 50.484375 112.5 51.511719 C 112.5 60.808594 104.9375 68.375 95.640625 68.375 Z M 67.539062 6.550781 C 67.539062 5.519531 66.695312 4.675781 65.664062 4.675781 C 64.632812 4.675781 63.789062 5.519531 63.789062 6.550781 L 63.789062 8.425781 L 67.539062 8.425781 Z M 75.03125 19.664062 L 56.296875 19.664062 C 53.863281 19.664062 51.777344 21.234375 51.003906 23.410156 L 79.714844 23.410156 C 79.925781 23.410156 80.136719 23.410156 80.324219 23.410156 C 79.550781 21.234375 77.464844 19.664062 75.03125 19.664062 Z M 65.664062 27.160156 L 58.171875 27.160156 L 58.171875 40.273438 C 58.171875 41.304688 59.011719 42.144531 60.042969 42.144531 L 63.789062 42.144531 C 64.820312 42.144531 65.664062 41.304688 65.664062 40.273438 Z M 79.714844 27.160156 L 76.90625 27.160156 L 76.90625 32.777344 C 76.90625 37.953125 81.097656 42.144531 86.273438 42.144531 L 100.230469 42.144531 C 97.464844 33.457031 89.316406 27.160156 79.714844 27.160156 Z M 101.070312 45.894531 L 86.273438 45.894531 C 79.035156 45.894531 73.15625 40.015625 73.15625 32.777344 L 73.15625 27.160156 L 69.410156 27.160156 L 69.410156 40.273438 C 69.410156 43.363281 66.882812 45.894531 63.789062 45.894531 L 60.042969 45.894531 C 56.953125 45.894531 54.421875 43.363281 54.421875 40.273438 L 54.421875 27.160156 L 16.953125 27.160156 C 16.324219 27.160156 15.738281 26.855469 15.386719 26.316406 L 8.453125 15.917969 L 4.988281 15.917969 L 11.125 28.1875 C 11.382812 28.726562 11.382812 29.335938 11.125 29.875 L 4.988281 42.144531 L 8.453125 42.144531 L 15.386719 31.75 C 15.808594 31.140625 16.53125 30.8125 17.28125 30.953125 L 48.875 36.574219 C 49.714844 36.714844 50.324219 37.414062 50.417969 38.257812 L 50.746094 41.820312 C 51.003906 44.652344 51.964844 47.34375 53.511719 49.664062 L 101.210938 49.664062 C 101.234375 49.359375 101.257812 49.054688 101.257812 48.726562 C 101.257812 47.742188 101.1875 46.804688 101.070312 45.894531 Z M 99.832031 53.386719 L 56.953125 53.386719 C 59.949219 55.800781 63.671875 57.132812 67.539062 57.132812 L 92.828125 57.132812 C 95.757812 57.132812 98.332031 55.636719 99.832031 53.386719 Z M 90.019531 60.878906 L 71.285156 60.878906 L 71.285156 64.628906 L 90.019531 64.628906 Z M 90.019531 60.878906 " fill-opacity="1" fill-rule="nonzero"/></g></svg>