<svg xmlns="http://www.w3.org/2000/svg" xmlns:xlink="http://www.w3.org/1999/xlink" width="150" zoomAndPan="magnify" viewBox="0 0 112.5 68.999997" height="92" preserveAspectRatio="xMidYMid meet" version="1.0"><defs><clipPath id="id1"><path d="M 0 3.011719 L 112.003906 3.011719 L 112.003906 60 L 0 60 Z M 0 3.011719 " clip-rule="nonzero"/></clipPath><clipPath id="id2"><path d="M 65 62 L 106 62 L 106 66.011719 L 65 66.011719 Z M 65 62 " clip-rule="nonzero"/></clipPath></defs><g clip-path="url(#id1)"><path fill="#000000" d="M 110.710938 9.128906 C 111.675781 9.128906 112.464844 8.34375 112.464844 7.382812 C 112.464844 6.417969 111.675781 5.632812 110.710938 5.632812 L 81.746094 5.632812 L 81.746094 4.757812 C 81.746094 3.796875 80.957031 3.011719 79.992188 3.011719 C 79.027344 3.011719 78.234375 3.796875 78.234375 4.757812 L 78.234375 5.632812 L 49.273438 5.632812 C 48.308594 5.632812 47.515625 6.417969 47.515625 7.382812 C 47.515625 8.34375 48.308594 9.128906 49.273438 9.128906 L 78.234375 9.128906 L 78.234375 17.777344 L 75.601562 17.777344 C 72.707031 17.777344 70.335938 20.136719 70.335938 22.933594 L 70.335938 24.683594 L 68.492188 24.683594 C 62.964844 24.683594 57.960938 27.128906 54.625 31.496094 C 53.925781 32.371094 53.398438 33.246094 52.871094 34.207031 L 19.167969 34.207031 L 13.289062 22.234375 C 13.023438 21.625 12.410156 21.273438 11.707031 21.273438 L 1.878906 21.273438 C 1.261719 21.273438 0.734375 21.625 0.386719 22.0625 C 0.0351562 22.585938 0.0351562 23.195312 0.296875 23.722656 L 5.738281 34.292969 C 2.578125 34.46875 0.121094 37.003906 0.121094 40.0625 C 0.121094 43.03125 2.402344 45.476562 5.386719 45.828125 L 5.828125 45.828125 L 2.929688 52.554688 C 2.667969 53.078125 2.753906 53.691406 3.105469 54.214844 C 3.457031 54.738281 3.984375 55.003906 4.597656 55.003906 L 13.726562 55.003906 C 14.429688 55.003906 15.042969 54.566406 15.394531 53.953125 L 18.203125 47.136719 L 53.574219 50.722656 C 56.644531 55.964844 62.351562 59.285156 68.667969 59.285156 L 103.6875 59.285156 C 108.515625 59.285156 112.464844 55.4375 112.464844 50.632812 C 112.464844 37.4375 102.460938 26.605469 89.644531 24.945312 L 89.644531 23.023438 C 89.644531 20.136719 87.277344 17.867188 84.378906 17.867188 L 81.746094 17.867188 L 81.746094 9.214844 L 110.710938 9.214844 Z M 4.773438 24.683594 L 10.652344 24.683594 L 15.394531 34.207031 L 9.6875 34.207031 Z M 12.410156 51.507812 L 7.144531 51.507812 L 9.425781 46.265625 L 14.339844 46.789062 Z M 5.828125 42.417969 C 4.597656 42.246094 3.632812 41.285156 3.632812 40.0625 C 3.632812 38.75 4.6875 37.703125 6.003906 37.703125 L 51.554688 37.613281 C 50.765625 40.496094 50.851562 43.554688 51.640625 46.527344 C 51.640625 46.703125 51.730469 46.789062 51.816406 46.964844 Z M 70.335938 28.175781 L 81.746094 28.175781 L 81.746094 30.273438 C 81.746094 35.429688 84.027344 39.972656 87.628906 42.945312 L 82.1875 42.945312 C 75.691406 42.855469 70.335938 37.175781 70.335938 30.273438 Z M 108.957031 50.632812 C 108.957031 53.515625 106.585938 55.789062 103.6875 55.789062 L 68.492188 55.789062 C 62.261719 55.789062 56.734375 51.59375 55.066406 45.652344 C 53.925781 41.457031 54.714844 37.003906 57.433594 33.507812 C 59.71875 30.535156 63.140625 28.613281 66.824219 28.175781 L 66.824219 30.097656 C 66.824219 39.011719 73.761719 46.175781 82.273438 46.175781 L 108.515625 46.175781 C 108.78125 47.75 108.957031 49.148438 108.957031 50.632812 Z M 107.550781 42.855469 L 97.195312 42.855469 C 90.613281 42.855469 85.257812 37.175781 85.257812 30.273438 L 85.257812 28.175781 L 86.222656 28.175781 C 96.054688 28.175781 104.390625 34.292969 107.550781 42.855469 Z M 84.378906 21.273438 C 85.34375 21.273438 86.136719 22.0625 86.136719 23.023438 L 86.136719 24.769531 L 73.847656 24.769531 L 73.847656 23.023438 C 73.847656 22.0625 74.636719 21.273438 75.601562 21.273438 Z M 84.378906 21.273438 " fill-opacity="1" fill-rule="nonzero"/></g><g clip-path="url(#id2)"><path fill="#000000" d="M 103.6875 66.011719 C 104.65625 66.011719 105.445312 65.226562 105.445312 64.265625 C 105.445312 63.304688 104.65625 62.515625 103.6875 62.515625 L 66.824219 62.515625 C 65.859375 62.515625 65.070312 63.304688 65.070312 64.265625 C 65.070312 65.226562 65.859375 66.011719 66.824219 66.011719 Z M 103.6875 66.011719 " fill-opacity="1" fill-rule="nonzero"/></g></svg>