<svg xmlns="http://www.w3.org/2000/svg" xmlns:xlink="http://www.w3.org/1999/xlink" width="150" zoomAndPan="magnify" viewBox="0 0 112.5 68.999997" height="92" preserveAspectRatio="xMidYMid meet" version="1.0"><defs><clipPath id="id1"><path d="M 46 12 L 84 12 L 84 68.847656 L 46 68.847656 Z M 46 12 " clip-rule="nonzero"/></clipPath><clipPath id="id2"><path d="M 29 0.152344 L 67 0.152344 L 67 57 L 29 57 Z M 29 0.152344 " clip-rule="nonzero"/></clipPath></defs><g clip-path="url(#id1)"><path fill="#a6a6a6" d="M 71.867188 12.351562 L 68.523438 15.953125 C 75.660156 20.625 79.8125 29.175781 78.402344 38.117188 C 77.472656 44.007812 74.296875 49.1875 69.460938 52.699219 C 65.238281 55.761719 60.191406 57.238281 55.046875 56.945312 L 55.929688 56.019531 C 55.914062 56.019531 55.894531 56.019531 55.878906 56.019531 L 59.226562 52.515625 L 56.132812 49.574219 L 49.496094 56.523438 L 49.492188 56.523438 L 46.628906 59.523438 L 49.71875 62.460938 L 56.6875 69.082031 L 59.554688 66.082031 L 55.042969 61.796875 C 61.21875 62.085938 67.257812 60.296875 72.324219 56.617188 C 78.210938 52.34375 82.078125 46.039062 83.210938 38.867188 C 84.875 28.273438 80.136719 18.125 71.867188 12.351562 Z M 71.867188 12.351562 " fill-opacity="1" fill-rule="nonzero"/></g><g clip-path="url(#id2)"><path fill="#a6a6a6" d="M 34.34375 31.191406 C 35.269531 25.300781 38.449219 20.121094 43.28125 16.609375 C 47.503906 13.542969 52.550781 12.070312 57.695312 12.363281 L 56.8125 13.289062 C 56.832031 13.289062 56.847656 13.285156 56.867188 13.285156 L 53.519531 16.789062 L 56.609375 19.730469 L 63.25 12.78125 L 63.25 12.785156 L 66.113281 9.785156 L 63.023438 6.84375 L 63.023438 6.847656 L 56.054688 0.226562 L 53.1875 3.226562 L 57.699219 7.511719 C 51.527344 7.21875 45.484375 9.007812 40.417969 12.6875 C 34.53125 16.960938 30.667969 23.265625 29.535156 30.4375 C 27.863281 41.03125 32.601562 51.183594 40.875 56.957031 L 44.21875 53.351562 C 37.082031 48.683594 32.933594 40.132812 34.34375 31.191406 Z M 34.34375 31.191406 " fill-opacity="1" fill-rule="nonzero"/></g></svg>